<svg width="32" height="32" viewBox="0 0 32 32" fill="none" xmlns="http://www.w3.org/2000/svg">
<path d="M27.333 13.5866H23.4797C20.3197 13.5866 17.7463 11.0133 17.7463 7.85329V3.99996C17.7463 3.26663 17.1463 2.66663 16.413 2.66663H10.7597C6.65301 2.66663 3.33301 5.33329 3.33301 10.0933V21.9066C3.33301 26.6666 6.65301 29.3333 10.7597 29.3333H21.2397C25.3463 29.3333 28.6663 26.6666 28.6663 21.9066V14.92C28.6663 14.1866 28.0663 13.5866 27.333 13.5866ZM16.6397 20.9333C15.9463 23.16 13.5063 24.36 12.6663 24.36C11.813 24.36 9.42634 23.2 8.69301 20.9333C8.21301 19.4533 8.75967 17.52 10.453 16.9733C11.2263 16.72 12.053 16.8666 12.653 17.3333C13.253 16.8666 14.0797 16.72 14.8663 16.9733C16.573 17.52 17.1063 19.4533 16.6397 20.9333Z" fill="#313132"/>
<path d="M23.2399 11.7467C24.5066 11.76 26.2666 11.76 27.7732 11.76C28.5332 11.76 28.9332 10.8667 28.3999 10.3334C26.4799 8.40003 23.0399 4.92003 21.0666 2.9467C20.5199 2.40003 19.5732 2.77336 19.5732 3.53336V8.1867C19.5732 10.1334 21.2266 11.7467 23.2399 11.7467Z" fill="#313132"/>
</svg>
