<svg width="32" height="32" viewBox="0 0 32 32" fill="none" xmlns="http://www.w3.org/2000/svg">
<path d="M25.3333 20C22.3867 20 20 22.3867 20 25.3333C20 26.3333 20.28 27.28 20.7733 28.08C21.6933 29.6267 23.3867 30.6667 25.3333 30.6667C27.28 30.6667 28.9733 29.6267 29.8933 28.08C30.3867 27.28 30.6667 26.3333 30.6667 25.3333C30.6667 22.3867 28.28 20 25.3333 20ZM28.0933 24.76L25.2533 27.3867C25.0667 27.56 24.8133 27.6533 24.5733 27.6533C24.32 27.6533 24.0667 27.56 23.8667 27.36L22.5467 26.04C22.16 25.6533 22.16 25.0133 22.5467 24.6267C22.9333 24.24 23.5733 24.24 23.96 24.6267L24.6 25.2667L26.7333 23.2933C27.1333 22.92 27.7733 22.9467 28.1467 23.3467C28.52 23.7467 28.4933 24.3733 28.0933 24.76Z" fill="#313132"/>
<path d="M29.3337 10.0667V10.6667C29.3337 11.4 28.7337 12 28.0003 12H4.00033C3.26699 12 2.66699 11.4 2.66699 10.6667V10.0533C2.66699 6.99999 5.13366 4.53333 8.18699 4.53333H23.8003C26.8537 4.53333 29.3337 7.01333 29.3337 10.0667Z" fill="#313132"/>
<path d="M2.66699 15.3334V21.9467C2.66699 25 5.13366 27.4667 8.18699 27.4667H16.5337C17.307 27.4667 17.9737 26.8134 17.907 26.04C17.7203 24 18.3737 21.7867 20.187 20.0267C20.9337 19.2934 21.8537 18.7334 22.8537 18.4134C24.5203 17.88 26.1337 17.9467 27.5603 18.4267C28.427 18.72 29.3337 18.0934 29.3337 17.1734V15.32C29.3337 14.5867 28.7337 13.9867 28.0003 13.9867H4.00033C3.26699 14 2.66699 14.6 2.66699 15.3334ZM10.667 23H8.00033C7.45366 23 7.00033 22.5467 7.00033 22C7.00033 21.4534 7.45366 21 8.00033 21H10.667C11.2137 21 11.667 21.4534 11.667 22C11.667 22.5467 11.2137 23 10.667 23Z" fill="#313132"/>
</svg>
