<svg width="32" height="32" viewBox="0 0 32 32" fill="none" xmlns="http://www.w3.org/2000/svg">
<path d="M22.9332 16.5333C19.3999 16.5333 16.5332 19.4 16.5332 22.9333C16.5332 24.1333 16.8665 25.2667 17.4665 26.2267C18.5732 28.08 20.5999 29.3333 22.9332 29.3333C25.2665 29.3333 27.3065 28.08 28.3999 26.2267C28.9865 25.2667 29.3332 24.1333 29.3332 22.9333C29.3332 19.4 26.4665 16.5333 22.9332 16.5333ZM26.1065 22.0933L22.6932 25.24C22.5065 25.4133 22.2532 25.5067 22.0132 25.5067C21.7599 25.5067 21.5065 25.4133 21.3065 25.2133L19.7332 23.64C19.3465 23.2533 19.3465 22.6133 19.7332 22.2267C20.1199 21.84 20.7599 21.84 21.1465 22.2267L22.0399 23.12L24.7465 20.6133C25.1465 20.24 25.7865 20.2667 26.1599 20.6667C26.5332 21.08 26.5065 21.72 26.1065 22.0933Z" fill="#313132"/>
<path d="M29.3337 11.64C29.3337 13.2266 29.0803 14.6933 28.6403 16.0533C28.5603 16.3333 28.227 16.4133 27.987 16.24C26.5337 15.16 24.7603 14.5866 22.9337 14.5866C18.307 14.5866 14.5337 18.36 14.5337 22.9866C14.5337 24.4266 14.907 25.84 15.6137 27.0933C15.827 27.4666 15.5737 27.9466 15.1737 27.8C11.9603 26.7066 5.46699 22.72 3.36033 16.0533C2.92033 14.6933 2.66699 13.2266 2.66699 11.64C2.66699 7.51998 5.98699 4.18665 10.0803 4.18665C12.4937 4.18665 14.6537 5.35998 16.0003 7.15998C17.347 5.35998 19.507 4.18665 21.9203 4.18665C26.0137 4.18665 29.3337 7.51998 29.3337 11.64Z" fill="#313132"/>
</svg>
