<svg width="36" height="36" viewBox="0 0 36 36" fill="none" xmlns="http://www.w3.org/2000/svg">
<rect x="0.3" y="0.3" width="35.4" height="35.4" rx="5.7" fill="#FF692B"/>
<rect x="0.3" y="0.3" width="35.4" height="35.4" rx="5.7" stroke="white" stroke-width="0.6"/>
<path d="M18 21C14.6863 21 12 18.3137 12 15V9.44444C12 9.0306 12 8.82367 12.0603 8.65798C12.1614 8.38021 12.3802 8.16141 12.658 8.06031C12.8237 8 13.0306 8 13.4444 8H22.5556C22.9694 8 23.1763 8 23.342 8.06031C23.6198 8.16141 23.8386 8.38021 23.9397 8.65798C24 8.82367 24 9.0306 24 9.44444V15C24 18.3137 21.3137 21 18 21ZM18 21V24M24 10H26.5C26.9659 10 27.1989 10 27.3827 10.0761C27.6277 10.1776 27.8224 10.3723 27.9239 10.6173C28 10.8011 28 11.0341 28 11.5V12C28 12.93 28 13.395 27.8978 13.7765C27.6204 14.8117 26.8117 15.6204 25.7765 15.8978C25.395 16 24.93 16 24 16M12 10H9.5C9.03406 10 8.80109 10 8.61732 10.0761C8.37229 10.1776 8.17761 10.3723 8.07612 10.6173C8 10.8011 8 11.0341 8 11.5V12C8 12.93 8 13.395 8.10222 13.7765C8.37962 14.8117 9.18827 15.6204 10.2235 15.8978C10.605 16 11.07 16 12 16M13.4444 28H22.5556C22.801 28 23 27.801 23 27.5556C23 25.5919 21.4081 24 19.4444 24H16.5556C14.5919 24 13 25.5919 13 27.5556C13 27.801 13.199 28 13.4444 28Z" stroke="white" stroke-width="1.5" stroke-linecap="round" stroke-linejoin="round"/>
</svg>
