<svg width="142" height="19" viewBox="0 0 142 19" fill="none" xmlns="http://www.w3.org/2000/svg">
<path d="M6.92375 19C4.94803 19 3.29578 18.3522 1.96698 17.0565C0.655658 15.7438 0 14.1498 0 12.2746C0 10.3652 0.655658 8.7712 1.96698 7.4926C3.29578 6.19695 4.94803 5.54913 6.92375 5.54913C8.2001 5.54913 9.3628 5.84747 10.4119 6.44415C11.4609 7.04083 12.2477 7.84208 12.7722 8.84791L10.3332 10.2288C10.0359 9.61508 9.58135 9.13773 8.96941 8.79677C8.37494 8.43876 7.68432 8.25976 6.89753 8.25976C5.74357 8.25976 4.77319 8.64334 3.9864 9.4105C3.2171 10.1947 2.83244 11.1494 2.83244 12.2746C2.83244 13.3997 3.2171 14.3544 3.9864 15.1386C4.77319 15.9058 5.74357 16.2894 6.89753 16.2894C7.66683 16.2894 8.35746 16.1189 8.96941 15.7779C9.59884 15.4199 10.0709 14.9341 10.3856 14.3203L12.8247 15.6756C12.2652 16.6985 11.4522 17.5083 10.3856 18.105C9.33658 18.7017 8.18262 19 6.92375 19ZM17.7044 18.6676H14.872V0H17.7044V18.6676ZM23.6682 3.45222C23.3186 3.79318 22.8989 3.96366 22.4094 3.96366C21.9198 3.96366 21.4915 3.79318 21.1243 3.45222C20.7746 3.09421 20.5998 2.67654 20.5998 2.19919C20.5998 1.72185 20.7746 1.3127 21.1243 0.971737C21.474 0.613729 21.9023 0.434725 22.4094 0.434725C22.9164 0.434725 23.3448 0.613729 23.6945 0.971737C24.0441 1.3127 24.219 1.72185 24.219 2.19919C24.219 2.67654 24.0354 3.09421 23.6682 3.45222ZM23.8256 18.6676H20.9932V5.88156H23.8256V18.6676ZM33.3037 19C31.328 19 29.6758 18.3522 28.347 17.0565C27.0357 15.7438 26.38 14.1498 26.38 12.2746C26.38 10.3652 27.0357 8.7712 28.347 7.4926C29.6758 6.19695 31.328 5.54913 33.3037 5.54913C34.58 5.54913 35.7427 5.84747 36.7918 6.44415C37.8409 7.04083 38.6276 7.84208 39.1522 8.84791L36.7131 10.2288C36.4159 9.61508 35.9613 9.13773 35.3494 8.79677C34.7549 8.43876 34.0643 8.25976 33.2775 8.25976C32.1235 8.25976 31.1531 8.64334 30.3664 9.4105C29.5971 10.1947 29.2125 11.1494 29.2125 12.2746C29.2125 13.3997 29.5971 14.3544 30.3664 15.1386C31.1531 15.9058 32.1235 16.2894 33.2775 16.2894C34.0468 16.2894 34.7374 16.1189 35.3494 15.7779C35.9788 15.4199 36.4509 14.9341 36.7656 14.3203L39.2046 15.6756C38.6451 16.6985 37.8321 17.5083 36.7656 18.105C35.7165 18.7017 34.5626 19 33.3037 19ZM46.8643 12.1467L52.8439 18.6676H49.4607L44.0843 12.7604V18.6676H41.2518V0.767161H44.0843V11.533L49.1722 5.88156H52.6341L46.8643 12.1467ZM116.385 15.1386C116.927 15.1386 117.391 15.3262 117.775 15.7012C118.16 16.0763 118.352 16.528 118.352 17.0565C118.352 17.585 118.16 18.0368 117.775 18.4118C117.391 18.7869 116.927 18.9744 116.385 18.9744C115.843 18.9744 115.38 18.7869 114.995 18.4118C114.611 18.0368 114.418 17.585 114.418 17.0565C114.418 16.528 114.602 16.0763 114.969 15.7012C115.354 15.3262 115.826 15.1386 116.385 15.1386ZM124.198 5.88156V8.02961C124.914 6.44415 126.261 5.65141 128.236 5.65141V8.64334C127.17 8.57515 126.226 8.83087 125.404 9.4105C124.6 9.97308 124.198 10.9107 124.198 12.2234V18.6676H121.365V5.88156H124.198ZM139.168 12.7349V5.88156H142V18.6676H139.168V17.031C138.293 18.3437 136.938 19 135.102 19C133.581 19 132.357 18.5312 131.431 17.5935C130.522 16.6389 130.067 15.3517 130.067 13.7322V5.88156H132.899V13.4509C132.899 14.4056 133.162 15.1386 133.686 15.6501C134.211 16.1615 134.928 16.4172 135.837 16.4172C136.868 16.4172 137.681 16.1104 138.276 15.4966C138.87 14.8659 139.168 13.9453 139.168 12.7349Z" fill="white"/>
<path d="M69.0691 5.54909C70.5553 5.54909 71.7529 6.01791 72.6621 6.95555C73.5713 7.89319 74.0259 9.15474 74.0259 10.7402V18.6675H71.1934V10.9192C71.1934 10.0498 70.9661 9.36785 70.5115 8.87345C70.0569 8.37906 69.4363 8.13187 68.6495 8.13187C67.7578 8.13187 67.0584 8.42168 66.5514 9.00131C66.0443 9.5639 65.7908 10.3992 65.7908 11.5074V18.6675H62.9584V10.9192C62.9584 10.0327 62.7398 9.3508 62.3027 8.87345C61.8831 8.37906 61.2799 8.13187 60.4931 8.13187C59.6189 8.13187 58.9108 8.42168 58.3687 9.00131C57.8442 9.58095 57.582 10.4163 57.582 11.5074V18.6675H54.7495V5.88153H57.582V7.41585C58.4212 6.17135 59.6713 5.54909 61.3323 5.54909C63.0108 5.54909 64.2522 6.22249 65.0565 7.56928C65.9132 6.22249 67.2507 5.54909 69.0691 5.54909ZM87.4428 7.69714V5.88153H90.2753V18.6675H87.4428V16.8263C86.3763 18.2754 84.8464 19 82.8532 19C81.0523 19 79.5137 18.3521 78.2374 17.0565C76.961 15.7608 76.3229 14.1669 76.3229 12.2745C76.3229 10.3822 76.961 8.78821 78.2374 7.49257C79.5137 6.19692 81.0523 5.54909 82.8532 5.54909C84.8464 5.54909 86.3763 6.26511 87.4428 7.69714ZM80.3355 15.2153C81.1223 15.9825 82.1101 16.366 83.2991 16.366C84.488 16.366 85.4759 15.9825 86.2626 15.2153C87.0494 14.4311 87.4428 13.4508 87.4428 12.2745C87.4428 11.0982 87.0494 10.1265 86.2626 9.35932C85.4759 8.57511 84.488 8.18301 83.2991 8.18301C82.1101 8.18301 81.1223 8.57511 80.3355 9.35932C79.5487 10.1265 79.1553 11.0982 79.1553 12.2745C79.1553 13.4338 79.5487 14.4141 80.3355 15.2153ZM100.474 5.54909C101.995 5.54909 103.21 6.02644 104.12 6.98112C105.046 7.91877 105.51 9.19737 105.51 10.8169V18.6675H102.677V11.0982C102.677 10.1435 102.415 9.41047 101.89 8.89903C101.366 8.38759 100.649 8.13187 99.7399 8.13187C98.7083 8.13187 97.8953 8.44725 97.3008 9.07803C96.7063 9.69176 96.4091 10.6038 96.4091 11.8142V18.6675H93.5767V5.88153H96.4091V7.51814C97.2833 6.20544 98.6384 5.54909 100.474 5.54909ZM111.235 3.45219C110.885 3.79315 110.465 3.96363 109.976 3.96363C109.486 3.96363 109.058 3.79315 108.691 3.45219C108.341 3.09418 108.166 2.6765 108.166 2.19916C108.166 1.72182 108.341 1.31266 108.691 0.971704C109.041 0.613696 109.469 0.434692 109.976 0.434692C110.483 0.434692 110.911 0.613696 111.261 0.971704C111.611 1.31266 111.786 1.72182 111.786 2.19916C111.786 2.6765 111.602 3.09418 111.235 3.45219ZM111.392 18.6675H108.56V5.88153H111.392V18.6675Z" fill="#FF692B"/>
</svg>
